<svg width="49" height="48" viewBox="0 0 49 48" fill="none" xmlns="http://www.w3.org/2000/svg">
<rect x="0.5" width="48" height="48" fill="#F2F2F2"/>
<rect x="0.5" width="48" height="48" stroke="#A9A9A9"/>
<g clip-path="url(#clip0_0_674)">
<path d="M29.1451 25.9114C28.8176 25.5703 28.4225 25.3879 28.0037 25.3879C27.5884 25.3879 27.1899 25.5669 26.8488 25.908L25.7817 26.9717C25.6939 26.9244 25.6061 26.8805 25.5217 26.8366C25.4001 26.7759 25.2853 26.7185 25.1874 26.6577C24.1878 26.0228 23.2794 25.1955 22.4082 24.125C21.9861 23.5914 21.7024 23.1423 21.4964 22.6864C21.7733 22.4332 22.03 22.1698 22.2799 21.9165C22.3744 21.8219 22.469 21.724 22.5635 21.6294C23.2727 20.9203 23.2727 20.0018 22.5635 19.2926L21.6416 18.3707C21.5369 18.266 21.4289 18.158 21.3276 18.0499C21.125 17.8406 20.9122 17.6244 20.6927 17.4218C20.3652 17.0976 19.9734 16.9254 19.5615 16.9254C19.1495 16.9254 18.751 17.0976 18.4133 17.4218C18.4099 17.4252 18.4099 17.4252 18.4066 17.4286L17.2584 18.5869C16.8262 19.0191 16.5796 19.5459 16.5256 20.1571C16.4446 21.1432 16.735 22.0617 16.9579 22.6628C17.5049 24.1385 18.3221 25.5061 19.5412 26.9717C21.0203 28.7378 22.7999 30.1325 24.8328 31.1152C25.6095 31.4833 26.6462 31.9189 27.8045 31.9932C27.8754 31.9966 27.9497 31.9999 28.0172 31.9999C28.7973 31.9999 29.4524 31.7197 29.9657 31.1625C29.9691 31.1557 29.9758 31.1523 29.9792 31.1456C30.1548 30.9328 30.3574 30.7404 30.5702 30.5344C30.7154 30.3959 30.864 30.2507 31.0092 30.0987C31.3435 29.7509 31.5191 29.3457 31.5191 28.9303C31.5191 28.5116 31.3401 28.1097 30.999 27.772L29.1451 25.9114ZM30.3541 29.4673C30.3507 29.4673 30.3507 29.4706 30.3541 29.4673C30.2224 29.6091 30.0873 29.7374 29.9421 29.8792C29.7226 30.0886 29.4997 30.3081 29.2903 30.5546C28.9493 30.9193 28.5474 31.0915 28.0206 31.0915C27.97 31.0915 27.9159 31.0915 27.8653 31.0882C26.8623 31.024 25.9303 30.6323 25.2313 30.298C23.32 29.3727 21.6416 28.0591 20.247 26.3943C19.0954 25.0064 18.3255 23.7231 17.8156 22.3454C17.5015 21.5045 17.3867 20.8494 17.4374 20.2314C17.4711 19.8363 17.6231 19.5088 17.9034 19.2285L19.0549 18.0769C19.2204 17.9216 19.396 17.8372 19.5682 17.8372C19.781 17.8372 19.9532 17.9655 20.0612 18.0736C20.0646 18.0769 20.068 18.0803 20.0714 18.0837C20.2774 18.2762 20.4732 18.4754 20.6792 18.6882C20.7839 18.7962 20.892 18.9043 21 19.0157L21.9219 19.9376C22.2799 20.2956 22.2799 20.6265 21.9219 20.9845C21.824 21.0824 21.7294 21.1803 21.6315 21.2749C21.3478 21.5653 21.0777 21.8354 20.7839 22.0988C20.7771 22.1056 20.7704 22.109 20.767 22.1157C20.4766 22.4061 20.5306 22.6898 20.5914 22.8823C20.5948 22.8924 20.5982 22.9025 20.6015 22.9127C20.8413 23.4935 21.179 24.0406 21.6923 24.6923L21.6957 24.6957C22.6277 25.8438 23.6104 26.7387 24.6944 27.4242C24.8328 27.512 24.9746 27.5829 25.1097 27.6505C25.2313 27.7113 25.3461 27.7687 25.444 27.8295C25.4575 27.8362 25.471 27.8463 25.4846 27.8531C25.5994 27.9105 25.7074 27.9375 25.8189 27.9375C26.0992 27.9375 26.2748 27.7619 26.3322 27.7045L27.4871 26.5496C27.6019 26.4348 27.7842 26.2963 27.997 26.2963C28.2063 26.2963 28.3786 26.428 28.4833 26.5429C28.4866 26.5462 28.4866 26.5462 28.49 26.5496L30.3507 28.4103C30.6985 28.7547 30.6985 29.1093 30.3541 29.4673Z" fill="#454545"/>
<path d="M25.1467 19.806C26.0315 19.9546 26.8352 20.3733 27.4768 21.0149C28.1184 21.6565 28.5338 22.4602 28.6857 23.345C28.7229 23.5678 28.9154 23.7232 29.1349 23.7232C29.1619 23.7232 29.1855 23.7198 29.2125 23.7164C29.4624 23.6759 29.6279 23.4395 29.5874 23.1896C29.405 22.1192 28.8985 21.1432 28.1252 20.3699C27.3519 19.5966 26.3759 19.0901 25.3054 18.9077C25.0556 18.8672 24.8226 19.0327 24.7787 19.2792C24.7348 19.5257 24.8968 19.7654 25.1467 19.806Z" fill="#454545"/>
<path d="M32.4819 23.0579C32.1813 21.2952 31.3506 19.6912 30.0741 18.4147C28.7977 17.1382 27.1936 16.3075 25.4309 16.007C25.1844 15.9631 24.9514 16.1319 24.9075 16.3784C24.8669 16.6283 25.0324 16.8613 25.2823 16.9052C26.8559 17.172 28.2911 17.9183 29.4325 19.0563C30.5739 20.1977 31.3168 21.6329 31.5836 23.2065C31.6208 23.4294 31.8132 23.5847 32.0327 23.5847C32.0598 23.5847 32.0834 23.5814 32.1104 23.578C32.3569 23.5408 32.5258 23.3045 32.4819 23.0579Z" fill="#454545"/>
</g>
<defs>
<clipPath id="clip0_0_674">
<rect width="16" height="16" fill="white" transform="translate(16.5 16)"/>
</clipPath>
</defs>
</svg>
