<svg width="49" height="48" viewBox="0 0 49 48" fill="none" xmlns="http://www.w3.org/2000/svg">
<rect x="0.5" width="48" height="48" fill="#F2F2F2"/>
<rect x="0.5" width="48" height="48" stroke="#A9A9A9"/>
<path d="M30.4564 19.8872L26.7065 16.1373C26.619 16.0498 26.4995 16 26.375 16H19.8125C19.0371 16 18.4062 16.6308 18.4062 17.4062V30.5938C18.4062 31.3692 19.0371 32 19.8125 32H29.1875C29.9629 32 30.5938 31.3692 30.5938 30.5938V20.2188C30.5938 20.0909 30.5401 19.9709 30.4564 19.8872ZM26.8438 17.6004L28.9933 19.75H27.3125C27.054 19.75 26.8438 19.5397 26.8438 19.2812V17.6004ZM29.1875 31.0625H19.8125C19.554 31.0625 19.3438 30.8522 19.3438 30.5938V17.4062C19.3438 17.1478 19.554 16.9375 19.8125 16.9375H25.9062V19.2812C25.9062 20.0567 26.5371 20.6875 27.3125 20.6875H29.6562V30.5938C29.6562 30.8522 29.446 31.0625 29.1875 31.0625Z" fill="#454545"/>
<path d="M27.3125 22.625H21.6875C21.4286 22.625 21.2188 22.8349 21.2188 23.0938C21.2188 23.3526 21.4286 23.5625 21.6875 23.5625H27.3125C27.5714 23.5625 27.7812 23.3526 27.7812 23.0938C27.7812 22.8349 27.5714 22.625 27.3125 22.625Z" fill="#454545"/>
<path d="M27.3125 24.5H21.6875C21.4286 24.5 21.2188 24.7099 21.2188 24.9688C21.2188 25.2276 21.4286 25.4375 21.6875 25.4375H27.3125C27.5714 25.4375 27.7812 25.2276 27.7812 24.9688C27.7812 24.7099 27.5714 24.5 27.3125 24.5Z" fill="#454545"/>
<path d="M27.3125 26.375H21.6875C21.4286 26.375 21.2188 26.5849 21.2188 26.8438C21.2188 27.1026 21.4286 27.3125 21.6875 27.3125H27.3125C27.5714 27.3125 27.7812 27.1026 27.7812 26.8438C27.7812 26.5849 27.5714 26.375 27.3125 26.375Z" fill="#454545"/>
<path d="M25.4375 28.25H21.6875C21.4286 28.25 21.2188 28.4599 21.2188 28.7188C21.2188 28.9776 21.4286 29.1875 21.6875 29.1875H25.4375C25.6964 29.1875 25.9062 28.9776 25.9062 28.7188C25.9062 28.4599 25.6964 28.25 25.4375 28.25Z" fill="#454545"/>
</svg>
