<svg width="49" height="48" viewBox="0 0 49 48" fill="none" xmlns="http://www.w3.org/2000/svg">
<rect x="0.5" width="48" height="48" fill="#F2F2F2"/>
<rect x="0.5" width="48" height="48" stroke="#A9A9A9"/>
<path d="M31.5 15C32.0304 15 32.5391 15.2107 32.9142 15.5858C33.2893 15.9609 33.5 16.4696 33.5 17V31C33.5 31.5304 33.2893 32.0391 32.9142 32.4142C32.5391 32.7893 32.0304 33 31.5 33H17.5C16.9696 33 16.4609 32.7893 16.0858 32.4142C15.7107 32.0391 15.5 31.5304 15.5 31V17C15.5 16.4696 15.7107 15.9609 16.0858 15.5858C16.4609 15.2107 16.9696 15 17.5 15H31.5ZM31 30.5V25.2C31 24.3354 30.6565 23.5062 30.0452 22.8948C29.4338 22.2835 28.6046 21.94 27.74 21.94C26.89 21.94 25.9 22.46 25.42 23.24V22.13H22.63V30.5H25.42V25.57C25.42 24.8 26.04 24.17 26.81 24.17C27.1813 24.17 27.5374 24.3175 27.7999 24.5801C28.0625 24.8426 28.21 25.1987 28.21 25.57V30.5H31ZM19.38 20.56C19.8256 20.56 20.2529 20.383 20.5679 20.0679C20.883 19.7529 21.06 19.3256 21.06 18.88C21.06 17.95 20.31 17.19 19.38 17.19C18.9318 17.19 18.5019 17.3681 18.185 17.685C17.8681 18.0019 17.69 18.4318 17.69 18.88C17.69 19.81 18.45 20.56 19.38 20.56ZM20.77 30.5V22.13H18V30.5H20.77Z" fill="#454545"/>
</svg>
