<svg width="198" height="32" viewBox="0 0 198 32" fill="none" xmlns="http://www.w3.org/2000/svg">
<path d="M12.9541 24.6347V18.3934C12.9541 17.8412 12.1942 17.6909 11.9839 18.2014L6.26623 31.2997C6.0466 31.8331 6.75002 32.2574 7.11945 31.8144L12.8372 24.9575C12.9127 24.8669 12.9541 24.7527 12.9541 24.6347Z" fill="#0A0A0A"/>
<path d="M24.9183 12.5598L14.4524 23.5065C14.1383 23.8351 13.584 23.6128 13.584 23.1582V3.93378C13.584 3.60628 13.8701 3.40129 14.1468 3.43169C14.389 3.45831 14.56 3.6739 14.7511 3.82507L24.6426 11.6484C24.8337 11.7995 25.0573 11.9663 25.058 12.21C25.0583 12.3361 25.0116 12.4621 24.9183 12.5598Z" fill="#0A0A0A"/>
<path d="M0.0798311 0.23268C0.258873 -0.0521921 0.670309 0.0400426 0.997309 0.119283L11.9579 2.7753C12.2849 2.85454 12.6949 2.84448 12.8756 3.1283C12.9253 3.20642 12.9542 3.29917 12.9542 3.39864V16.7246C12.9542 16.9815 12.7745 17.1677 12.5603 17.2168C12.2547 17.2869 12.026 16.978 11.8401 16.7255L0.454564 1.26474C0.268632 1.01226 -0.0250033 0.777307 0.00187348 0.464903C0.00895468 0.382594 0.0359345 0.302523 0.0798311 0.23268Z" fill="#0A0A0A"/>
<path d="M26.8631 2.58494L26.1492 11.0856C26.1011 11.3653 25.85 11.5244 25.6052 11.5028C25.3556 11.4808 25.1777 11.2592 24.9801 11.1049L18.3564 5.93465C18.1588 5.78043 17.9256 5.60894 17.9305 5.35836C17.9347 5.14576 18.0728 4.94135 18.3048 4.87941L26.2363 2.01259C26.5914 1.91781 26.9253 2.22271 26.8631 2.58494Z" fill="#0A0A0A"/>
<path d="M27.1778 6.64007L27.4936 2.556C27.5373 2.30718 27.7452 2.15062 27.9665 2.13933C28.2235 2.12621 28.4336 2.33062 28.6546 2.46251L31.4549 4.13388C31.6759 4.26576 31.9369 4.41217 31.9573 4.66868C31.9643 4.75632 31.9484 4.84481 31.9116 4.92441C31.7928 5.1815 31.4728 5.26124 31.2229 5.39452L28.1941 7.0099C27.9442 7.14318 27.6491 7.30569 27.4087 7.15588C27.2436 7.05297 27.1397 6.85702 27.1778 6.64007Z" fill="#0A0A0A"/>
<path d="M42.9614 26.0713C42.6694 26.0713 42.5234 25.9643 42.5234 25.7502C42.5234 25.575 42.65 25.4582 42.903 25.3999L43.5745 25.2831C43.9832 25.2052 44.246 25.0982 44.3627 24.9619C44.499 24.8257 44.5671 24.5532 44.5671 24.1445V6.97759C44.5671 6.56886 44.499 6.29637 44.3627 6.16013C44.246 6.02388 43.9832 5.91683 43.5745 5.83898L42.903 5.7222C42.65 5.6638 42.5234 5.54702 42.5234 5.37185C42.5234 5.15775 42.6694 5.0507 42.9614 5.0507H48.888C49.8612 5.0507 50.7273 5.25507 51.4864 5.6638C52.2455 6.07254 52.8391 6.62725 53.2673 7.32794C53.715 8.02863 53.9388 8.82663 53.9388 9.72196C53.9388 10.5978 53.6761 11.4153 53.1505 12.1744C52.6445 12.914 51.9049 13.5368 50.9317 14.0429C50.8149 14.1013 50.7565 14.1791 50.7565 14.2764C50.7565 14.3737 50.8246 14.4419 50.9609 14.4808C52.2844 14.9285 53.3062 15.6486 54.0264 16.6413C54.7466 17.6144 55.1066 18.7725 55.1066 20.1155C55.1066 21.2638 54.8439 22.2954 54.3184 23.2102C53.7928 24.1055 53.063 24.8062 52.1287 25.3123C51.2139 25.8183 50.1726 26.0713 49.0048 26.0713H42.9614ZM48.1873 14.0721C49.2189 14.0721 50.0753 13.6731 50.7565 12.8751C51.4572 12.0576 51.8076 11.0455 51.8076 9.83874C51.8076 8.632 51.4767 7.65882 50.8149 6.9192C50.1532 6.16013 49.2773 5.78059 48.1873 5.78059C47.1558 5.78059 46.64 6.16986 46.64 6.9484V12.4663C46.64 13.0308 46.7568 13.4395 46.9903 13.6925C47.2434 13.9455 47.6424 14.0721 48.1873 14.0721ZM48.6253 25.3415C49.8904 25.3415 50.922 24.8646 51.72 23.9109C52.518 22.9377 52.917 21.6434 52.917 20.0279C52.917 18.4124 52.5082 17.1376 51.6908 16.2033C50.8928 15.2691 49.8125 14.8019 48.4501 14.8019C47.2434 14.8019 46.64 15.2788 46.64 16.2325V23.327C46.64 24.67 47.3017 25.3415 48.6253 25.3415Z" fill="#0A0A0A"/>
<path d="M56.4945 26.0713C56.261 26.0713 56.1442 25.9643 56.1442 25.7502C56.1442 25.5556 56.2513 25.4388 56.4654 25.3999L56.8741 25.3415C57.2828 25.2831 57.5845 25.1663 57.7791 24.9911C57.9738 24.8159 58.0711 24.524 58.0711 24.1153V7.38633C58.0711 7.03599 58.0127 6.79269 57.8959 6.65645C57.7986 6.5202 57.6137 6.44235 57.3412 6.42288L56.6697 6.3353C56.4556 6.29637 56.3486 6.17959 56.3486 5.98495C56.3486 5.79032 56.4556 5.67354 56.6697 5.63461C57.2147 5.51783 57.6818 5.38158 58.0711 5.22587C58.4604 5.07017 58.7815 4.91446 59.0345 4.75875C59.346 4.56411 59.5795 4.4668 59.7352 4.4668C59.9493 4.4668 60.0564 4.62251 60.0564 4.93392V24.1153C60.0564 24.524 60.1148 24.8159 60.2315 24.9911C60.3678 25.1468 60.6403 25.2539 61.049 25.3123L61.7205 25.3999C61.9346 25.4388 62.0417 25.5556 62.0417 25.7502C62.0417 25.9643 61.9249 26.0713 61.6913 26.0713H56.4945Z" fill="#0A0A0A"/>
<path d="M67.318 26.3341C66.8314 26.3341 66.3643 26.2271 65.9167 26.013C65.469 25.7989 65.0992 25.4582 64.8072 24.9911C64.5153 24.524 64.3693 23.9012 64.3693 23.1226V12.9626C64.3693 12.6123 64.3109 12.369 64.1941 12.2328C64.0968 12.0965 63.9119 12.0187 63.6394 11.9992L63.1431 11.9408C62.8122 11.9019 62.6468 11.7754 62.6468 11.5613C62.6468 11.3082 62.8317 11.1817 63.2015 11.1817H65.9167C66.2086 11.1817 66.3546 11.3277 66.3546 11.6197V22.5095C66.3546 23.4048 66.52 24.0471 66.8509 24.4364C67.2013 24.8062 67.6781 24.9911 68.2815 24.9911C68.8848 24.9911 69.4201 24.8257 69.8872 24.4948C70.3543 24.1445 70.7242 23.6871 70.9966 23.1226C71.2886 22.5387 71.4346 21.9061 71.4346 21.2249V12.9626C71.4346 12.6123 71.3762 12.369 71.2594 12.2328C71.1621 12.0965 70.9772 12.0187 70.7047 11.9992L70.2084 11.9408C69.8775 11.9019 69.7121 11.7754 69.7121 11.5613C69.7121 11.3082 69.897 11.1817 70.2668 11.1817H72.9819C73.2739 11.1817 73.4199 11.3277 73.4199 11.6197V22.9474C73.4199 23.2978 73.4685 23.5411 73.5658 23.6773C73.6826 23.7941 73.8773 23.872 74.1497 23.9109L74.7628 23.9985C75.0159 24.0179 75.1424 24.1153 75.1424 24.2904C75.1424 24.4656 74.9867 24.5824 74.6753 24.6408C74.0719 24.7186 73.5853 24.8743 73.2155 25.1079C72.8651 25.3415 72.5537 25.6237 72.2812 25.9546C72.1061 26.1297 71.9601 26.2173 71.8433 26.2173C71.6681 26.2173 71.5806 26.1005 71.5806 25.867V24.524C71.5806 24.3683 71.5222 24.2807 71.4054 24.2612C71.3081 24.2223 71.201 24.2612 71.0842 24.378C70.3641 25.0982 69.7218 25.6042 69.1573 25.8962C68.6124 26.1881 67.9993 26.3341 67.318 26.3341Z" fill="#0A0A0A"/>
<path d="M81.1888 26.3341C80.2545 26.3341 79.4176 26.0227 78.678 25.3999C77.9384 24.777 77.3447 23.9012 76.8971 22.7723C76.4689 21.6239 76.2548 20.3004 76.2548 18.8017C76.2548 17.2641 76.4786 15.9114 76.9263 14.7436C77.3739 13.5757 77.987 12.661 78.7656 11.9992C79.5441 11.3374 80.4102 11.0066 81.364 11.0066C82.5123 11.0066 83.4368 11.4834 84.1375 12.4371C84.8577 13.3714 85.2177 14.8993 85.2177 17.0208C85.2177 17.6631 84.9744 17.9842 84.4879 17.9842H78.9407C78.5515 17.9842 78.3568 18.2081 78.3568 18.6557C78.3568 20.7189 78.6585 22.2662 79.2619 23.2978C79.8653 24.3294 80.6341 24.8451 81.5683 24.8451C82.3079 24.8451 82.9113 24.5824 83.3784 24.0569C83.8456 23.5314 84.2251 22.6458 84.5171 21.4001C84.5754 21.186 84.702 21.0789 84.8966 21.0789C85.1302 21.0789 85.2177 21.2736 85.1593 21.6629C84.8479 23.3951 84.3516 24.6116 83.6704 25.3123C82.9892 25.9935 82.162 26.3341 81.1888 26.3341ZM78.8532 17.2544H81.8019C82.7361 17.2544 83.2033 16.7678 83.2033 15.7946C83.2033 14.5295 83.0476 13.5368 82.7361 12.8167C82.4247 12.0965 81.9576 11.7364 81.3348 11.7364C80.5757 11.7364 79.9334 12.1744 79.4079 13.0502C78.9018 13.9261 78.5709 15.1718 78.4152 16.7872C78.3763 17.0986 78.5223 17.2544 78.8532 17.2544Z" fill="#0A0A0A"/>
<path d="M90.253 26.3341C89.5718 26.3341 89.0074 26.1005 88.5597 25.6334C88.1315 25.1468 87.9174 24.3586 87.9174 23.2686V12.3495C87.9174 12.116 87.8006 11.9992 87.567 11.9992H86.7204C86.409 11.9992 86.2533 11.8824 86.2533 11.6488C86.2533 11.4931 86.3408 11.3569 86.516 11.2401C87.1583 10.7925 87.6741 10.3156 88.0634 9.80954C88.4526 9.28403 88.7933 8.57361 89.0852 7.67828C89.2215 7.26955 89.3869 7.06518 89.5815 7.06518C89.7956 7.06518 89.9027 7.22089 89.9027 7.53231V10.773C89.9027 11.0455 90.0389 11.1817 90.3114 11.1817H92.2091C92.5205 11.1817 92.6762 11.318 92.6762 11.5905C92.6762 11.8629 92.5205 11.9992 92.2091 11.9992H90.3114C90.0389 11.9992 89.9027 12.1354 89.9027 12.4079V23.2978C89.9027 23.726 89.9708 24.0666 90.107 24.3196C90.2433 24.5532 90.4963 24.67 90.8661 24.67C91.2749 24.67 91.6057 24.4656 91.8588 24.0569C92.1313 23.6481 92.3064 22.9864 92.3843 22.0716C92.4232 21.7991 92.5497 21.6629 92.7638 21.6629C92.9974 21.6629 93.1142 21.8088 93.1142 22.1008C93.0558 23.5995 92.7444 24.6797 92.1799 25.3415C91.6349 26.0032 90.9926 26.3341 90.253 26.3341Z" fill="#0A0A0A"/>
<path d="M94.305 26.0713C94.0715 26.0713 93.9547 25.9643 93.9547 25.7502C93.9547 25.5556 94.0617 25.4388 94.2758 25.3999L94.6846 25.3415C95.0933 25.2831 95.3561 25.1663 95.4728 24.9911C95.6091 24.8159 95.6772 24.524 95.6772 24.1153V7.38633C95.6772 7.03599 95.6188 6.80242 95.502 6.68564C95.4047 6.5494 95.2198 6.46181 94.9473 6.42288L94.3342 6.3353C94.1201 6.29637 94.0131 6.17959 94.0131 5.98495C94.0131 5.79032 94.1201 5.67354 94.3342 5.63461C94.8792 5.51783 95.3366 5.38158 95.7064 5.22587C96.0762 5.07017 96.3876 4.91446 96.6406 4.75875C96.9521 4.56411 97.1856 4.4668 97.3413 4.4668C97.5554 4.4668 97.6625 4.62251 97.6625 4.93392V12.6707C97.6625 12.8459 97.7209 12.9529 97.8377 12.9918C97.9544 13.0113 98.1004 12.9432 98.2756 12.7875C99.0152 12.1062 99.6672 11.6391 100.232 11.3861C100.796 11.1331 101.39 11.0066 102.013 11.0066C102.927 11.0066 103.648 11.318 104.173 11.9408C104.699 12.5442 104.961 13.4395 104.961 14.6268V24.1153C104.961 24.524 105.02 24.8159 105.136 24.9911C105.273 25.1468 105.545 25.2539 105.954 25.3123L106.596 25.3999C106.81 25.4388 106.917 25.5556 106.917 25.7502C106.917 25.9643 106.801 26.0713 106.567 26.0713H101.662C101.39 26.0713 101.254 25.9643 101.254 25.7502C101.254 25.5556 101.361 25.4388 101.575 25.3999L101.983 25.3415C102.392 25.2831 102.655 25.1663 102.772 24.9911C102.908 24.8159 102.976 24.524 102.976 24.1153V14.9479C102.976 13.9942 102.801 13.3227 102.451 12.9334C102.1 12.5442 101.604 12.3495 100.962 12.3495C100.339 12.3495 99.7743 12.5344 99.2682 12.9042C98.7816 13.2546 98.3924 13.7314 98.1004 14.3348C97.8085 14.9187 97.6625 15.5708 97.6625 16.2909V24.1153C97.6625 24.524 97.7209 24.8159 97.8377 24.9911C97.9739 25.1663 98.2464 25.2733 98.6551 25.3123L99.4434 25.3999C99.6575 25.4388 99.7645 25.5556 99.7645 25.7502C99.7645 25.9643 99.6478 26.0713 99.4142 26.0713H94.305Z" fill="#0A0A0A"/>
<path d="M111.727 13.0502C112.525 11.6878 113.488 11.0066 114.617 11.0066C115.259 11.0066 115.736 11.2012 116.048 11.5905C116.359 11.9603 116.515 12.3787 116.515 12.8459C116.515 13.2157 116.417 13.5174 116.223 13.7509C116.048 13.9845 115.765 14.1013 115.376 14.1013C115.065 14.1013 114.831 14.0331 114.675 13.8969C114.539 13.7412 114.422 13.566 114.325 13.3714C114.247 13.1767 114.15 13.0113 114.033 12.8751C113.916 12.7193 113.722 12.6415 113.449 12.6415C113.099 12.6415 112.768 12.8556 112.457 13.2838C112.145 13.6925 111.882 14.2472 111.668 14.9479C111.474 15.6486 111.376 16.4466 111.376 17.3419V24.1153C111.376 24.524 111.435 24.8159 111.551 24.9911C111.688 25.1663 111.96 25.2733 112.369 25.3123L113.157 25.3999C113.371 25.4388 113.478 25.5458 113.478 25.721C113.478 25.9546 113.332 26.0713 113.04 26.0713H108.106C107.814 26.0713 107.668 25.9643 107.668 25.7502C107.668 25.575 107.795 25.4582 108.048 25.3999L108.398 25.3415C108.807 25.2636 109.07 25.1468 109.187 24.9911C109.323 24.8159 109.391 24.524 109.391 24.1153V14.3056C109.391 13.9553 109.333 13.7217 109.216 13.6049C109.119 13.4687 108.934 13.3811 108.661 13.3422L108.048 13.2546C107.795 13.2351 107.668 13.1281 107.668 12.9334C107.668 12.7777 107.824 12.6707 108.136 12.6123C108.739 12.515 109.196 12.3593 109.508 12.1452C109.839 11.9311 110.179 11.6683 110.53 11.3569C110.705 11.1817 110.851 11.0941 110.968 11.0941C111.143 11.0941 111.23 11.2109 111.23 11.4445V13.021C111.23 13.1573 111.289 13.2449 111.405 13.2838C111.522 13.3033 111.629 13.2254 111.727 13.0502Z" fill="#0A0A0A"/>
<path d="M122.452 26.3341C121.459 26.3341 120.564 26.0032 119.766 25.3415C118.987 24.6602 118.364 23.7357 117.897 22.5679C117.43 21.4001 117.197 20.096 117.197 18.6557C117.197 17.2154 117.43 15.9211 117.897 14.7728C118.364 13.6244 118.997 12.7096 119.795 12.0284C120.593 11.3472 121.479 11.0066 122.452 11.0066C123.444 11.0066 124.33 11.3472 125.109 12.0284C125.907 12.7096 126.539 13.6244 127.006 14.7728C127.473 15.9211 127.707 17.2154 127.707 18.6557C127.707 20.096 127.473 21.4001 127.006 22.5679C126.559 23.7357 125.936 24.6602 125.138 25.3415C124.34 26.0032 123.444 26.3341 122.452 26.3341ZM122.452 25.6042C124.476 25.6042 125.488 23.2881 125.488 18.6557C125.488 14.0429 124.476 11.7364 122.452 11.7364C120.428 11.7364 119.416 14.0429 119.416 18.6557C119.416 23.2881 120.428 25.6042 122.452 25.6042Z" fill="#0A0A0A"/>
<path d="M131.946 26.3341C131.129 26.3341 130.457 26.0811 129.932 25.575C129.406 25.0495 129.143 24.3586 129.143 23.5022C129.143 22.6652 129.406 21.8769 129.932 21.1373C130.457 20.3783 131.177 19.697 132.092 19.0937C133.007 18.4903 134.048 18.0037 135.216 17.6339C135.469 17.556 135.596 17.3906 135.596 17.1376V14.4808C135.596 13.5465 135.45 12.8848 135.158 12.4955C134.866 12.0868 134.467 11.8824 133.961 11.8824C133.474 11.8824 133.026 12.1062 132.618 12.5539C132.228 12.9821 131.946 13.712 131.771 14.7436C131.674 15.3664 131.46 15.8238 131.129 16.1157C130.817 16.3882 130.496 16.5245 130.165 16.5245C129.62 16.5245 129.348 16.252 129.348 15.707C129.348 15.1426 129.504 14.5878 129.815 14.0429C130.146 13.4784 130.574 12.9724 131.1 12.5247C131.625 12.0576 132.199 11.6878 132.822 11.4153C133.445 11.1428 134.068 11.0066 134.691 11.0066C136.618 11.0066 137.581 12.1257 137.581 14.364V23.2978C137.581 24.1153 137.785 24.524 138.194 24.524C138.447 24.524 138.681 24.3586 138.895 24.0277C139.109 23.6773 139.216 23.0934 139.216 22.276C139.216 21.9645 139.342 21.8088 139.595 21.8088C139.829 21.8088 139.946 21.9743 139.946 22.3051C139.946 23.726 139.693 24.7576 139.187 25.3999C138.7 26.0227 138.145 26.3341 137.523 26.3341C137.055 26.3341 136.686 26.1492 136.413 25.7794C136.141 25.3901 135.956 24.9327 135.858 24.4072C135.839 24.2126 135.751 24.1153 135.596 24.1153C135.459 24.0958 135.323 24.1834 135.187 24.378C134.72 25.0203 134.243 25.5069 133.756 25.8378C133.27 26.1687 132.666 26.3341 131.946 26.3341ZM132.735 24.9911C133.241 24.9911 133.708 24.8159 134.136 24.4656C134.564 24.0958 134.914 23.6092 135.187 23.0058C135.459 22.4025 135.596 21.7212 135.596 20.9622V18.8309C135.596 18.4611 135.391 18.354 134.983 18.5098C133.795 18.938 132.871 19.5316 132.209 20.2907C131.567 21.0303 131.246 21.9256 131.246 22.9766C131.246 24.3196 131.742 24.9911 132.735 24.9911Z" fill="#0A0A0A"/>
<path d="M144.224 26.3341C143.543 26.3341 142.979 26.1005 142.531 25.6334C142.103 25.1468 141.889 24.3586 141.889 23.2686V12.3495C141.889 12.116 141.772 11.9992 141.539 11.9992H140.692C140.38 11.9992 140.225 11.8824 140.225 11.6488C140.225 11.4931 140.312 11.3569 140.487 11.2401C141.13 10.7925 141.646 10.3156 142.035 9.80954C142.424 9.28403 142.765 8.57361 143.057 7.67828C143.193 7.26955 143.358 7.06518 143.553 7.06518C143.767 7.06518 143.874 7.22089 143.874 7.53231V10.773C143.874 11.0455 144.01 11.1817 144.283 11.1817H146.181C146.492 11.1817 146.648 11.318 146.648 11.5905C146.648 11.8629 146.492 11.9992 146.181 11.9992H144.283C144.01 11.9992 143.874 12.1354 143.874 12.4079V23.2978C143.874 23.726 143.942 24.0666 144.079 24.3196C144.215 24.5532 144.468 24.67 144.838 24.67C145.246 24.67 145.577 24.4656 145.83 24.0569C146.103 23.6481 146.278 22.9864 146.356 22.0716C146.395 21.7991 146.521 21.6629 146.735 21.6629C146.969 21.6629 147.086 21.8088 147.086 22.1008C147.027 23.5995 146.716 24.6797 146.151 25.3415C145.606 26.0032 144.964 26.3341 144.224 26.3341Z" fill="#0A0A0A"/>
<path d="M153.442 26.0713C153.15 26.0713 153.004 25.9643 153.004 25.7502C153.004 25.575 153.13 25.4582 153.383 25.3999L154.055 25.2831C154.464 25.2052 154.726 25.0982 154.843 24.9619C154.979 24.8257 155.048 24.5532 155.048 24.1445V6.97759C155.048 6.56886 154.979 6.29637 154.843 6.16013C154.726 6.02388 154.464 5.91683 154.055 5.83898L153.383 5.7222C153.13 5.6638 153.004 5.54702 153.004 5.37185C153.004 5.15775 153.15 5.0507 153.442 5.0507H158.785C159.076 5.0507 159.222 5.16748 159.222 5.40105C159.222 5.57622 159.115 5.68327 158.901 5.7222L158.113 5.83898C157.704 5.89737 157.432 6.00442 157.296 6.16013C157.179 6.31583 157.12 6.59806 157.12 7.00679V23.3562C157.12 24.0569 157.315 24.5629 157.704 24.8743C158.113 25.1858 158.619 25.3415 159.222 25.3415C159.67 25.3415 160.127 25.2539 160.595 25.0787C161.081 24.8841 161.519 24.5337 161.908 24.0277C162.298 23.5022 162.59 22.7431 162.784 21.7504L163.164 19.7943C163.222 19.5413 163.368 19.4148 163.602 19.4148C163.874 19.4148 163.991 19.5802 163.952 19.9111L163.602 25.3999C163.563 25.8475 163.32 26.0713 162.872 26.0713H153.442Z" fill="#0A0A0A"/>
<path d="M168.013 26.3341C167.195 26.3341 166.524 26.0811 165.998 25.575C165.473 25.0495 165.21 24.3586 165.21 23.5022C165.21 22.6652 165.473 21.8769 165.998 21.1373C166.524 20.3783 167.244 19.697 168.159 19.0937C169.074 18.4903 170.115 18.0037 171.283 17.6339C171.536 17.556 171.662 17.3906 171.662 17.1376V14.4808C171.662 13.5465 171.516 12.8848 171.224 12.4955C170.932 12.0868 170.533 11.8824 170.027 11.8824C169.541 11.8824 169.093 12.1062 168.684 12.5539C168.295 12.9821 168.013 13.712 167.838 14.7436C167.74 15.3664 167.526 15.8238 167.195 16.1157C166.884 16.3882 166.563 16.5245 166.232 16.5245C165.687 16.5245 165.414 16.252 165.414 15.707C165.414 15.1426 165.57 14.5878 165.881 14.0429C166.212 13.4784 166.641 12.9724 167.166 12.5247C167.692 12.0576 168.266 11.6878 168.889 11.4153C169.511 11.1428 170.134 11.0066 170.757 11.0066C172.684 11.0066 173.647 12.1257 173.647 14.364V23.2978C173.647 24.1153 173.852 24.524 174.261 24.524C174.514 24.524 174.747 24.3586 174.961 24.0277C175.175 23.6773 175.282 23.0934 175.282 22.276C175.282 21.9645 175.409 21.8088 175.662 21.8088C175.895 21.8088 176.012 21.9743 176.012 22.3051C176.012 23.726 175.759 24.7576 175.253 25.3999C174.767 26.0227 174.212 26.3341 173.589 26.3341C173.122 26.3341 172.752 26.1492 172.48 25.7794C172.207 25.3901 172.022 24.9327 171.925 24.4072C171.905 24.2126 171.818 24.1153 171.662 24.1153C171.526 24.0958 171.39 24.1834 171.253 24.378C170.786 25.0203 170.309 25.5069 169.823 25.8378C169.336 26.1687 168.733 26.3341 168.013 26.3341ZM168.801 24.9911C169.307 24.9911 169.774 24.8159 170.202 24.4656C170.631 24.0958 170.981 23.6092 171.253 23.0058C171.526 22.4025 171.662 21.7212 171.662 20.9622V18.8309C171.662 18.4611 171.458 18.354 171.049 18.5098C169.862 18.938 168.937 19.5316 168.276 20.2907C167.633 21.0303 167.312 21.9256 167.312 22.9766C167.312 24.3196 167.808 24.9911 168.801 24.9911Z" fill="#0A0A0A"/>
<path d="M182.185 26.3341C181.387 26.3341 180.618 26.0811 179.878 25.575C179.45 25.2831 179.061 25.3609 178.71 25.8086C178.516 26.0227 178.37 26.1589 178.272 26.2173C178.175 26.2952 178.078 26.3341 177.98 26.3341C177.766 26.3341 177.688 26.1979 177.747 25.9254C177.825 25.4777 177.883 24.9035 177.922 24.2028C177.961 23.5022 177.98 22.5679 177.98 21.4001V7.38633C177.98 7.03599 177.922 6.80242 177.805 6.68564C177.708 6.5494 177.523 6.46181 177.251 6.42288L176.637 6.3353C176.423 6.29637 176.316 6.17959 176.316 5.98495C176.316 5.79032 176.423 5.67354 176.637 5.63461C177.182 5.51783 177.64 5.38158 178.01 5.22587C178.379 5.07017 178.691 4.91446 178.944 4.75875C179.255 4.56411 179.489 4.4668 179.645 4.4668C179.859 4.4668 179.966 4.62251 179.966 4.93392V12.1452C179.966 12.3009 180.024 12.4079 180.141 12.4663C180.277 12.5052 180.423 12.4469 180.579 12.2911C181.416 11.4347 182.331 11.0066 183.323 11.0066C184.219 11.0066 185.007 11.3082 185.688 11.9116C186.389 12.4955 186.934 13.313 187.323 14.364C187.732 15.415 187.936 16.651 187.936 18.0718C187.936 19.6873 187.683 21.1179 187.177 22.3635C186.671 23.6092 185.98 24.5824 185.104 25.2831C184.248 25.9838 183.275 26.3341 182.185 26.3341ZM182.126 25.6042C183.216 25.6042 184.092 24.9619 184.754 23.6773C185.435 22.3927 185.776 20.6605 185.776 18.4806C185.776 16.4758 185.484 14.9479 184.9 13.8969C184.316 12.8459 183.489 12.3203 182.418 12.3203C181.756 12.3203 181.182 12.5928 180.696 13.1378C180.209 13.6828 179.966 14.4419 179.966 15.415V22.7723C179.966 23.6481 180.16 24.3391 180.55 24.8451C180.958 25.3512 181.484 25.6042 182.126 25.6042Z" fill="#0A0A0A"/>
<path d="M192.939 26.3341C192.491 26.3341 192.014 26.2757 191.508 26.1589C191.002 26.0616 190.594 25.9351 190.282 25.7794C190.107 25.6821 190.019 25.5166 190.019 25.2831L189.932 22.0132C189.932 21.6823 190.058 21.5169 190.311 21.5169C190.525 21.5169 190.671 21.6726 190.749 21.984C191.08 23.3659 191.479 24.3099 191.946 24.8159C192.433 25.322 193.017 25.575 193.698 25.575C194.262 25.575 194.73 25.3609 195.099 24.9327C195.469 24.4851 195.654 23.872 195.654 23.0934C195.654 22.3149 195.44 21.6239 195.012 21.0206C194.584 20.4172 193.863 19.7554 192.851 19.0353C191.839 18.354 191.1 17.6728 190.633 16.9916C190.165 16.2909 189.932 15.5318 189.932 14.7144C189.932 13.6049 190.321 12.7096 191.1 12.0284C191.878 11.3472 192.91 11.0066 194.194 11.0066C194.584 11.0066 194.963 11.0552 195.333 11.1525C195.703 11.2304 196.034 11.3666 196.326 11.5613C196.501 11.678 196.588 11.8338 196.588 12.0284L196.647 15.2399C196.647 15.5318 196.53 15.6778 196.296 15.6778C196.16 15.6778 196.063 15.6389 196.004 15.561C195.946 15.4637 195.897 15.3469 195.858 15.2107C195.469 13.9455 195.08 13.0697 194.691 12.5831C194.301 12.077 193.825 11.824 193.26 11.824C192.754 11.824 192.336 11.9992 192.005 12.3495C191.674 12.6999 191.508 13.1378 191.508 13.6633C191.508 14.3446 191.713 14.9382 192.121 15.4442C192.53 15.9503 193.27 16.5731 194.34 17.3127C195.313 18.0134 196.043 18.7725 196.53 19.59C197.036 20.388 197.289 21.2638 197.289 22.2176C197.289 23.4632 196.89 24.4656 196.092 25.2247C195.294 25.9643 194.243 26.3341 192.939 26.3341Z" fill="#0A0A0A"/>
</svg>
