<svg width="49" height="48" viewBox="0 0 49 48" fill="none" xmlns="http://www.w3.org/2000/svg">
<rect x="0.5" width="48" height="48" fill="#F2F2F2"/>
<rect x="0.5" width="48" height="48" stroke="#A9A9A9"/>
<path d="M17.2852 17.1024H32.2861C32.6795 17.1025 33.0666 17.2705 33.3594 17.5858C33.6536 17.9027 33.8261 18.3415 33.8262 18.8075V19.788L25.0986 24.4872C24.9992 24.5407 24.8925 24.5672 24.7861 24.5673C24.6796 24.5673 24.5722 24.5408 24.4727 24.4872L15.7451 19.787V18.8075C15.7452 18.3415 15.9177 17.9027 16.2119 17.5858C16.5047 17.2705 16.8918 17.1025 17.2852 17.1024Z" stroke="#454545" stroke-width="1.20539"/>
<path d="M33.8262 29.1926C33.8261 29.6586 33.6536 30.0975 33.3594 30.4143C33.0666 30.7295 32.6794 30.8976 32.2861 30.8977H17.2852C16.8919 30.8976 16.5047 30.7295 16.2119 30.4143C15.9177 30.0975 15.7452 29.6586 15.7451 29.1926V23.092L23.1816 27.0969C23.6772 27.3638 24.2272 27.5042 24.7861 27.5042C25.3449 27.5041 25.8942 27.3637 26.3896 27.0969L33.8262 23.092V29.1926Z" stroke="#454545" stroke-width="1.20539"/>
</svg>
