<svg width="49" height="48" viewBox="0 0 49 48" fill="none" xmlns="http://www.w3.org/2000/svg">
<rect x="0.5" width="48" height="48" fill="#F2F2F2"/>
<rect x="0.5" width="48" height="48" stroke="#A9A9A9"/>
<path d="M31.3504 30.3676L25.9901 22.7562L25.384 21.8954L21.5484 16.4517L21.2306 16.0002H16.5195L17.6683 17.6323L22.7673 24.8726L23.3733 25.732L27.4703 31.5495L27.7881 31.9996H32.5004L31.3504 30.3676ZM28.347 30.9572L24.0911 24.9134L23.4851 24.0526L18.5464 17.0413H20.6703L24.6649 22.7127L25.2709 23.5735L30.4722 30.9585H28.347V30.9572Z" fill="#454545"/>
<path d="M23.4844 24.054L24.0905 24.9147L23.3727 25.7321L17.8589 31.9996H16.5L22.7666 24.8727L23.4844 24.054Z" fill="#454545"/>
<path d="M31.9313 16.0002L25.9893 22.7562L25.2701 23.5735L24.6641 22.7127L25.3833 21.8954L29.4088 17.3164L30.5725 16.0002H31.9313Z" fill="#454545"/>
</svg>
