<svg width="49" height="48" viewBox="0 0 49 48" fill="none" xmlns="http://www.w3.org/2000/svg">
<rect x="0.5" width="48" height="48" fill="#F2F2F2"/>
<rect x="0.5" width="48" height="48" stroke="#A9A9A9"/>
<g clip-path="url(#clip0_0_657)">
<path fill-rule="evenodd" clip-rule="evenodd" d="M17.793 27.3575C17.2855 26.3475 17 25.2065 17 24C17 22.7935 17.2855 21.6525 17.793 20.6425C19.0255 18.1865 21.5675 16.5 24.5 16.5C27.4325 16.5 29.9745 18.1865 31.207 20.6425C31.7145 21.6525 32 22.7935 32 24C32 25.2065 31.7145 26.3475 31.207 27.3575C29.9745 29.8135 27.4325 31.5 24.5 31.5C21.5675 31.5 19.0255 29.8135 17.793 27.3575ZM18.493 21.5135C18.1755 22.2795 18 23.1195 18 24C18 24.8805 18.1755 25.7205 18.493 26.4865C19.3095 26.17 20.272 25.916 21.3345 25.745C21.2795 25.186 21.25 24.6015 21.25 24C21.25 23.3985 21.2795 22.814 21.3345 22.255C20.272 22.084 19.3095 21.83 18.493 21.5135ZM30.0505 20.618C29.223 19.2635 27.914 18.2355 26.3625 17.7715C26.432 17.8795 26.4995 17.994 26.5645 18.115C26.991 18.9115 27.332 19.9995 27.537 21.264C28.471 21.1125 29.3215 20.892 30.0505 20.618ZM22.6375 17.7715C21.086 18.2355 19.777 19.2635 18.9495 20.618C19.6785 20.8925 20.529 21.1125 21.463 21.264C21.668 19.9995 22.009 18.9115 22.4355 18.115C22.5005 17.994 22.568 17.8795 22.6375 17.7715ZM30.507 26.4865C30.8245 25.7205 31 24.8805 31 24C31 23.1195 30.8245 22.2795 30.507 21.5135C29.6905 21.83 28.728 22.084 27.6655 22.255C27.7205 22.814 27.75 23.3985 27.75 24C27.75 24.6015 27.7205 25.186 27.6655 25.745C28.728 25.916 29.6905 26.17 30.507 26.4865ZM18.9495 27.382C19.777 28.7365 21.086 29.7645 22.6375 30.2285C22.568 30.1205 22.5005 30.006 22.4355 29.885C22.009 29.0885 21.668 28.0005 21.463 26.736C20.529 26.8875 19.6785 27.108 18.9495 27.382ZM26.3625 30.2285C27.914 29.7645 29.223 28.7365 30.0505 27.382C29.3215 27.108 28.471 26.8875 27.537 26.736C27.332 28.0005 26.991 29.0885 26.5645 29.885C26.4995 30.006 26.432 30.1205 26.3625 30.2285ZM24.5 17.5C24.3075 17.5 24.1275 17.5915 23.9545 17.7385C23.7225 17.9355 23.5105 18.226 23.317 18.5875C22.935 19.3005 22.635 20.27 22.452 21.3955C23.107 21.464 23.793 21.5 24.5 21.5C25.207 21.5 25.893 21.4635 26.548 21.3955C26.365 20.27 26.065 19.3005 25.683 18.5875C25.4895 18.226 25.2775 17.9355 25.0455 17.7385C24.8725 17.5915 24.6925 17.5 24.5 17.5ZM24.5 30.5C24.6925 30.5 24.8725 30.4085 25.0455 30.2615C25.2775 30.0645 25.4895 29.774 25.683 29.4125C26.065 28.6995 26.365 27.73 26.548 26.6045C25.893 26.5365 25.207 26.5 24.5 26.5C23.793 26.5 23.107 26.5365 22.452 26.6045C22.635 27.73 22.935 28.6995 23.317 29.4125C23.5105 29.774 23.7225 30.0645 23.9545 30.2615C24.1275 30.4085 24.3075 30.5 24.5 30.5ZM26.675 25.6135C26.724 25.0965 26.75 24.556 26.75 24C26.75 23.444 26.724 22.9035 26.675 22.3865C25.9795 22.4605 25.2505 22.5 24.5 22.5C23.7495 22.5 23.0205 22.4605 22.325 22.3865C22.276 22.9035 22.25 23.444 22.25 24C22.25 24.556 22.276 25.0965 22.325 25.6135C23.0205 25.5395 23.7495 25.5 24.5 25.5C25.2505 25.5 25.9795 25.5395 26.675 25.6135Z" fill="#454545"/>
</g>
<defs>
<clipPath id="clip0_0_657">
<rect width="16" height="16" fill="white" transform="translate(16.5 16)"/>
</clipPath>
</defs>
</svg>
